<?xml version="1.0" standalone="no"?>
<!DOCTYPE svg PUBLIC "-//W3C//DTD SVG 20010904//EN"
 "http://www.w3.org/TR/2001/REC-SVG-20010904/DTD/svg10.dtd">
<svg version="1.0" xmlns="http://www.w3.org/2000/svg"
 width="98.000000pt" height="98.000000pt" viewBox="0 0 98.000000 98.000000"
 preserveAspectRatio="xMidYMid meet">

<g transform="translate(0.000000,98.000000) scale(0.100000,-0.100000)"
fill="#000000" stroke="none">
<path d="M241 961 c-57 -22 -138 -70 -164 -99 -15 -16 -14 -21 12 -67 16 -28
45 -67 65 -89 20 -21 36 -41 36 -44 0 -2 -15 -21 -34 -42 -105 -116 -99 -313
13 -433 38 -41 105 -87 126 -87 18 0 0 32 -25 45 -21 11 -30 23 -30 41 0 13
-7 41 -15 61 -14 34 -14 40 6 89 25 61 21 80 -22 98 -18 7 -40 30 -53 53 -22
39 -23 41 -5 74 9 19 29 45 42 58 l26 23 55 -22 55 -23 -20 -25 c-28 -36 -25
-96 6 -128 23 -22 33 -25 88 -23 l62 3 5 -91 c3 -54 11 -97 19 -107 31 -37
104 -7 137 55 10 21 13 43 8 79 -6 47 -5 51 26 80 18 16 37 30 42 30 7 0 9
-27 6 -72 -11 -162 -121 -274 -280 -286 -49 -3 -68 -9 -68 -18 0 -22 100 -17
167 7 79 30 162 113 192 192 44 121 19 244 -72 343 -49 54 -50 57 -32 70 17
13 23 10 63 -28 23 -24 57 -72 75 -108 29 -59 32 -73 32 -160 0 -82 -4 -103
-27 -152 -37 -80 -107 -152 -187 -191 -60 -29 -74 -32 -161 -32 -82 0 -103 4
-153 27 -81 38 -158 115 -193 191 -22 48 -29 81 -32 150 -4 86 -16 111 -28 61
-11 -42 3 -144 27 -209 32 -85 140 -193 223 -224 160 -60 328 -26 443 90 113
114 148 268 98 434 -5 17 0 23 28 33 58 21 117 70 138 115 24 55 23 98 -4 177
-22 60 -26 65 -51 63 -35 -3 -102 -37 -140 -71 -38 -35 -56 -81 -56 -139 l0
-47 -36 35 c-20 18 -51 58 -70 87 -19 28 -41 52 -49 52 -22 0 -19 -19 10 -56
14 -18 25 -34 25 -37 0 -2 -27 1 -59 7 -56 11 -61 14 -104 72 -24 33 -50 70
-56 82 -10 19 -9 20 17 13 28 -9 72 -31 104 -53 9 -7 20 -9 24 -6 13 14 -6 37
-51 63 -62 37 -150 43 -224 16z m127 -91 c29 -38 46 -70 39 -70 -62 1 -88 14
-127 66 -22 29 -40 55 -40 58 0 7 63 24 71 20 3 -2 29 -35 57 -74z m-129 -4
l30 -43 -67 14 c-37 7 -71 15 -77 16 -9 3 63 57 77 57 4 0 21 -20 37 -44z
m641 29 c0 -3 -12 -34 -26 -71 l-27 -65 -19 42 c-10 24 -17 48 -14 54 6 18 86
55 86 40z m54 -37 c13 -51 7 -67 -35 -87 -22 -11 -39 -17 -37 -13 2 4 14 33
27 65 27 62 35 69 45 35z m-764 -48 c103 -23 98 -17 50 -52 l-43 -32 -24 30
c-31 37 -46 64 -36 64 4 0 28 -5 53 -10z m629 -118 c-5 -13 -14 -33 -21 -45
-11 -21 -12 -21 -24 13 -16 44 -17 100 -3 137 l11 28 23 -55 c17 -40 21 -60
14 -78z m-396 71 c15 -4 2 -17 -55 -58 -77 -56 -85 -57 -130 -17 -16 13 -14
17 35 53 53 39 78 43 150 22z m131 -27 l50 -13 -25 -16 c-75 -49 -218 -92
-232 -70 -6 10 131 113 148 113 6 -1 32 -7 59 -14z m406 -5 c0 -27 -112 -123
-126 -108 -3 2 2 23 11 45 12 30 26 44 53 55 44 18 62 20 62 8z m-298 -130
c14 -15 30 -42 37 -59 12 -30 11 -32 -35 -76 -47 -45 -47 -45 -41 -99 4 -43 1
-61 -14 -85 -18 -30 -63 -52 -77 -38 -3 4 -9 50 -12 102 -6 111 -10 116 -90
107 -45 -4 -60 -2 -73 11 -46 46 6 121 103 150 30 9 71 25 90 35 34 19 35 19
62 0 14 -11 37 -32 50 -48z m-504 -146 c6 -14 27 -33 47 -42 19 -9 35 -21 35
-25 0 -5 -9 -27 -21 -50 -21 -40 -21 -51 0 -118 l10 -35 -33 37 c-41 47 -66
122 -66 199 0 63 10 75 28 34z"/>
</g>
</svg>
